<svg width="51" height="51" viewBox="0 0 51 51" fill="none" xmlns="http://www.w3.org/2000/svg">
<path d="M46.8037 27.8978C44.5782 27.1094 42.1748 26.9675 39.872 27.4885C37.5691 28.0095 35.4609 29.1721 33.7913 30.8416C32.1218 32.5111 30.9593 34.6193 30.4383 36.9222C29.9173 39.2251 30.0592 41.6284 30.8475 43.854H7.22042C6.66788 43.854 6.13798 43.6345 5.74728 43.2438C5.35658 42.8531 5.13708 42.3232 5.13708 41.7707V8.43734C5.13708 7.8848 5.35658 7.3549 5.74728 6.9642C6.13798 6.5735 6.66788 6.354 7.22042 6.354H44.7204C45.273 6.354 45.8029 6.5735 46.1936 6.9642C46.5843 7.3549 46.8037 7.8848 46.8037 8.43734V27.8978ZM26.0954 24.4436L12.7371 13.0998L10.0392 16.2748L26.1225 29.9311L41.9162 16.2644L39.1912 13.1123L26.0975 24.4436H26.0954ZM36.4912 40.829C36.3518 40.0743 36.3518 39.3004 36.4912 38.5457L34.3787 37.3248L36.4621 33.7165L38.5746 34.9373C39.1537 34.4415 39.8225 34.0519 40.5537 33.7915V31.354H44.7204V33.7915C45.4517 34.0519 46.1204 34.4415 46.6996 34.9373L48.8121 33.7165L50.8954 37.3248L48.7829 38.5457C48.9223 39.3004 48.9223 40.0743 48.7829 40.829L50.8954 42.0498L48.8121 45.6582L46.6996 44.4373C46.116 44.9379 45.4451 45.3263 44.7204 45.5832V48.0207H40.5537V45.5832C39.8291 45.3263 39.1581 44.9379 38.5746 44.4373L36.4621 45.6582L34.3787 42.0498L36.4912 40.829ZM42.6371 41.7707C43.1896 41.7707 43.7195 41.5512 44.1102 41.1605C44.5009 40.7698 44.7204 40.2399 44.7204 39.6873C44.7204 39.1348 44.5009 38.6049 44.1102 38.2142C43.7195 37.8235 43.1896 37.604 42.6371 37.604C42.0845 37.604 41.5546 37.8235 41.1639 38.2142C40.7732 38.6049 40.5537 39.1348 40.5537 39.6873C40.5537 40.2399 40.7732 40.7698 41.1639 41.1605C41.5546 41.5512 42.0845 41.7707 42.6371 41.7707Z" fill="#334D6E"/>
</svg>
