<svg width="51" height="51" viewBox="0 0 51 51" fill="none" xmlns="http://www.w3.org/2000/svg">
<path d="M8.85171 6.84909L25.9705 3.04492L43.0892 6.84909C43.5518 6.95193 43.9656 7.20943 44.2621 7.5791C44.5587 7.94876 44.7204 8.4085 44.7205 8.88242V29.6887C44.7203 31.7465 44.2121 33.7724 43.2411 35.5866C42.27 37.4008 40.866 38.9473 39.1538 40.0887L25.9705 48.8783L12.7871 40.0887C11.0752 38.9475 9.67142 37.4014 8.70035 35.5875C7.72928 33.7737 7.22095 31.7482 7.22046 29.6908V8.88242C7.22054 8.4085 7.3822 7.94876 7.67877 7.5791C7.97534 7.20943 8.38908 6.95193 8.85171 6.84909ZM25.9705 23.8783C27.3518 23.8783 28.6766 23.3295 29.6533 22.3528C30.6301 21.376 31.1788 20.0513 31.1788 18.6699C31.1788 17.2886 30.6301 15.9638 29.6533 14.9871C28.6766 14.0103 27.3518 13.4616 25.9705 13.4616C24.5891 13.4616 23.2644 14.0103 22.2876 14.9871C21.3109 15.9638 20.7621 17.2886 20.7621 18.6699C20.7621 20.0513 21.3109 21.376 22.2876 22.3528C23.2644 23.3295 24.5891 23.8783 25.9705 23.8783ZM16.6517 34.2949H35.2892C35.0367 31.9999 33.9461 29.8788 32.2265 28.3381C30.507 26.7974 28.2793 25.9454 25.9705 25.9454C23.6616 25.9454 21.434 26.7974 19.7144 28.3381C17.9948 29.8788 16.9043 31.9999 16.6517 34.2949Z" fill="#334D6E"/>
</svg>
