<svg width="51" height="51" viewBox="0 0 51 51" fill="none" xmlns="http://www.w3.org/2000/svg">
<path d="M23.8871 4.69922L39.0913 9.44922C39.5153 9.5816 39.886 9.84606 40.1491 10.204C40.4122 10.5619 40.554 10.9946 40.5538 11.4388V15.1159H44.7205C45.273 15.1159 45.8029 15.3354 46.1936 15.7261C46.5843 16.1168 46.8038 16.6467 46.8038 17.1992V21.3659H19.7205V17.1992C19.7205 16.6467 19.94 16.1168 20.3307 15.7261C20.7214 15.3354 21.2513 15.1159 21.8038 15.1159H36.3871V12.9701L23.8871 9.06172L11.3871 12.9701V28.3951C11.3868 29.6705 11.6793 30.929 12.2421 32.0737C12.8048 33.2183 13.6228 34.2185 14.633 34.9971L15.0267 35.2805L23.8871 41.3242L31.7663 35.9492H21.8038C21.2513 35.9492 20.7214 35.7297 20.3307 35.339C19.94 34.9483 19.7205 34.4184 19.7205 33.8659V25.5326H46.8038V33.8659C46.8038 34.4184 46.5843 34.9483 46.1936 35.339C45.8029 35.7297 45.273 35.9492 44.7205 35.9492L38.0121 35.9513C37.2059 37.0138 36.2267 37.9513 35.0955 38.7221L23.8871 46.3659L12.6788 38.7242C10.9965 37.5772 9.61994 36.0367 8.66867 34.2365C7.71739 32.4364 7.22025 30.4311 7.22046 28.3951V11.4388C7.22071 10.9949 7.36272 10.5627 7.6258 10.2052C7.88887 9.84772 8.25925 9.58358 8.68296 9.4513L23.8871 4.69922Z" fill="#334D6E"/>
</svg>
