<svg width="51" height="51" viewBox="0 0 51 51" fill="none" xmlns="http://www.w3.org/2000/svg">
<path d="M42.2222 46.7739H8.88892V42.6073C8.88892 39.8446 9.98638 37.1951 11.9399 35.2416C13.8934 33.2881 16.5429 32.1906 19.3056 32.1906H31.8056C34.5683 32.1906 37.2178 33.2881 39.1713 35.2416C41.1248 37.1951 42.2222 39.8446 42.2222 42.6073V46.7739ZM25.5556 28.0239C23.9141 28.0239 22.2886 27.7006 20.772 27.0724C19.2555 26.4442 17.8775 25.5235 16.7167 24.3628C15.556 23.202 14.6353 21.824 14.0071 20.3075C13.3789 18.7909 13.0556 17.1654 13.0556 15.5239C13.0556 13.8824 13.3789 12.257 14.0071 10.7404C14.6353 9.22381 15.556 7.84582 16.7167 6.68509C17.8775 5.52436 19.2555 4.60362 20.772 3.97543C22.2886 3.34725 23.9141 3.02393 25.5556 3.02393C28.8708 3.02393 32.0502 4.34089 34.3944 6.68509C36.7386 9.0293 38.0556 12.2087 38.0556 15.5239C38.0556 18.8391 36.7386 22.0186 34.3944 24.3628C32.0502 26.707 28.8708 28.0239 25.5556 28.0239Z" fill="#334D6E"/>
</svg>
