<svg width="300" height="91" viewBox="0 0 300 91" fill="none" xmlns="http://www.w3.org/2000/svg">
<path d="M8.44404 2.99664V28.6906C8.44404 31.7453 9.23671 34.046 10.822 35.5926C12.446 37.1393 14.6887 37.9126 17.55 37.9126C20.45 37.9126 22.6927 37.1393 24.278 35.5926C25.902 34.046 26.714 31.7453 26.714 28.6906V2.99664H33.326V28.5746C33.326 31.8613 32.6107 34.6453 31.18 36.9266C29.7494 39.208 27.8354 40.9093 25.438 42.0306C23.0407 43.152 20.392 43.7126 17.492 43.7126C14.592 43.7126 11.9434 43.152 9.54604 42.0306C7.18737 40.9093 5.31204 39.208 3.92004 36.9266C2.52804 34.6453 1.83204 31.8613 1.83204 28.5746V2.99664H8.44404ZM58.059 10.8266C60.5723 10.8266 62.815 11.3486 64.787 12.3926C66.7976 13.4366 68.3636 14.9833 69.485 17.0326C70.6063 19.082 71.167 21.5566 71.167 24.4566V43.3066H64.613V25.4426C64.613 22.5813 63.8976 20.3966 62.467 18.8886C61.0363 17.342 59.0836 16.5686 56.609 16.5686C54.1343 16.5686 52.1623 17.342 50.693 18.8886C49.2623 20.3966 48.547 22.5813 48.547 25.4426V43.3066H41.935V11.3486H48.547V15.0026C49.6296 13.688 51.0023 12.6633 52.665 11.9286C54.3663 11.194 56.1643 10.8266 58.059 10.8266ZM77.397 27.1826C77.397 23.9733 78.0543 21.1313 79.369 18.6566C80.7223 16.182 82.5396 14.268 84.821 12.9146C87.141 11.5226 89.7123 10.8266 92.535 10.8266C94.623 10.8266 96.6723 11.2906 98.683 12.2186C100.732 13.108 102.356 14.3066 103.555 15.8146V0.38664H110.225V43.3066H103.555V38.4926C102.472 40.0393 100.964 41.3153 99.031 42.3206C97.1363 43.326 94.9516 43.8286 92.477 43.8286C89.693 43.8286 87.141 43.1326 84.821 41.7406C82.5396 40.31 80.7223 38.338 79.369 35.8246C78.0543 33.2726 77.397 30.392 77.397 27.1826ZM103.555 27.2986C103.555 25.0946 103.091 23.1806 102.163 21.5566C101.274 19.9326 100.094 18.6953 98.625 17.8446C97.1556 16.994 95.5703 16.5686 93.869 16.5686C92.1676 16.5686 90.5823 16.994 89.113 17.8446C87.6436 18.6566 86.445 19.8746 85.517 21.4986C84.6276 23.084 84.183 24.9786 84.183 27.1826C84.183 29.3866 84.6276 31.32 85.517 32.9826C86.445 34.6453 87.6436 35.9213 89.113 36.8106C90.621 37.6613 92.2063 38.0866 93.869 38.0866C95.5703 38.0866 97.1556 37.6613 98.625 36.8106C100.094 35.96 101.274 34.7226 102.163 33.0986C103.091 31.436 103.555 29.5026 103.555 27.2986ZM148.2 26.5446C148.2 27.7433 148.122 28.826 147.968 29.7926H123.55C123.743 32.3446 124.69 34.394 126.392 35.9406C128.093 37.4873 130.181 38.2606 132.656 38.2606C136.213 38.2606 138.726 36.772 140.196 33.7946H147.33C146.363 36.7333 144.604 39.15 142.052 41.0446C139.538 42.9006 136.406 43.8286 132.656 43.8286C129.601 43.8286 126.856 43.152 124.42 41.7986C122.022 40.4066 120.128 38.4733 118.736 35.9986C117.382 33.4853 116.706 30.5853 116.706 27.2986C116.706 24.012 117.363 21.1313 118.678 18.6566C120.031 16.1433 121.906 14.21 124.304 12.8566C126.74 11.5033 129.524 10.8266 132.656 10.8266C135.672 10.8266 138.359 11.484 140.718 12.7986C143.076 14.1133 144.913 15.9693 146.228 18.3666C147.542 20.7253 148.2 23.4513 148.2 26.5446ZM141.298 24.4566C141.259 22.0206 140.389 20.068 138.688 18.5986C136.986 17.1293 134.879 16.3946 132.366 16.3946C130.084 16.3946 128.132 17.1293 126.508 18.5986C124.884 20.0293 123.917 21.982 123.608 24.4566H141.298ZM161.318 15.9886C162.285 14.3646 163.561 13.108 165.146 12.2186C166.77 11.2906 168.684 10.8266 170.888 10.8266V17.6706H169.206C166.616 17.6706 164.644 18.328 163.29 19.6426C161.976 20.9573 161.318 23.2386 161.318 26.4866V43.3066H154.706V11.3486H161.318V15.9886ZM184.68 16.7426V34.4326C184.68 35.6313 184.951 36.5013 185.492 37.0426C186.072 37.5453 187.039 37.7966 188.392 37.7966H192.452V43.3066H187.232C184.255 43.3066 181.974 42.6106 180.388 41.2186C178.803 39.8266 178.01 37.5646 178.01 34.4326V16.7426H174.24V11.3486H178.01V3.40264H184.68V11.3486H192.452V16.7426H184.68ZM196.342 27.1826C196.342 23.9733 197 21.1313 198.314 18.6566C199.668 16.182 201.485 14.268 203.766 12.9146C206.086 11.5226 208.638 10.8266 211.422 10.8266C213.936 10.8266 216.12 11.3293 217.976 12.3346C219.871 13.3013 221.379 14.5193 222.5 15.9886V11.3486H229.17V43.3066H222.5V38.5506C221.379 40.0586 219.852 41.3153 217.918 42.3206C215.985 43.326 213.781 43.8286 211.306 43.8286C208.561 43.8286 206.048 43.1326 203.766 41.7406C201.485 40.31 199.668 38.338 198.314 35.8246C197 33.2726 196.342 30.392 196.342 27.1826ZM222.5 27.2986C222.5 25.0946 222.036 23.1806 221.108 21.5566C220.219 19.9326 219.04 18.6953 217.57 17.8446C216.101 16.994 214.516 16.5686 212.814 16.5686C211.113 16.5686 209.528 16.994 208.058 17.8446C206.589 18.6566 205.39 19.8746 204.462 21.4986C203.573 23.084 203.128 24.9786 203.128 27.1826C203.128 29.3866 203.573 31.32 204.462 32.9826C205.39 34.6453 206.589 35.9213 208.058 36.8106C209.566 37.6613 211.152 38.0866 212.814 38.0866C214.516 38.0866 216.101 37.6613 217.57 36.8106C219.04 35.96 220.219 34.7226 221.108 33.0986C222.036 31.436 222.5 29.5026 222.5 27.2986ZM250.499 27.3566L265.231 43.3066H256.299L244.467 29.5606V43.3066H237.855V0.38664H244.467V25.3266L256.067 11.3486H265.231L250.499 27.3566ZM299.26 26.5446C299.26 27.7433 299.183 28.826 299.028 29.7926H274.61C274.803 32.3446 275.751 34.394 277.452 35.9406C279.153 37.4873 281.241 38.2606 283.716 38.2606C287.273 38.2606 289.787 36.772 291.256 33.7946H298.39C297.423 36.7333 295.664 39.15 293.112 41.0446C290.599 42.9006 287.467 43.8286 283.716 43.8286C280.661 43.8286 277.916 43.152 275.48 41.7986C273.083 40.4066 271.188 38.4733 269.796 35.9986C268.443 33.4853 267.766 30.5853 267.766 27.2986C267.766 24.012 268.423 21.1313 269.738 18.6566C271.091 16.1433 272.967 14.21 275.364 12.8566C277.8 11.5033 280.584 10.8266 283.716 10.8266C286.732 10.8266 289.419 11.484 291.778 12.7986C294.137 14.1133 295.973 15.9693 297.288 18.3666C298.603 20.7253 299.26 23.4513 299.26 26.5446ZM292.358 24.4566C292.319 22.0206 291.449 20.068 289.748 18.5986C288.047 17.1293 285.939 16.3946 283.426 16.3946C281.145 16.3946 279.192 17.1293 277.568 18.5986C275.944 20.0293 274.977 21.982 274.668 24.4566H292.358Z" fill="#109CF1"/>
<path d="M0.0340391 74.2986C0.0340391 71.0506 0.691373 68.2086 2.00604 65.7726C3.32071 63.298 5.11871 61.384 7.40004 60.0306C9.72004 58.6773 12.3107 58.0006 15.172 58.0006C17.6467 58.0006 19.9474 58.5806 22.074 59.7406C24.2007 60.862 25.8247 62.3506 26.946 64.2066V47.3866H32.282V90.3066H26.946V84.3326C25.902 86.2273 24.3554 87.7933 22.306 89.0306C20.2567 90.2293 17.8594 90.8286 15.114 90.8286C12.2914 90.8286 9.72004 90.1326 7.40004 88.7406C5.11871 87.3486 3.32071 85.396 2.00604 82.8826C0.691373 80.3693 0.0340391 77.508 0.0340391 74.2986ZM26.946 74.3566C26.946 71.9593 26.4627 69.8713 25.496 68.0926C24.5294 66.314 23.2147 64.9606 21.552 64.0326C19.928 63.066 18.13 62.5826 16.158 62.5826C14.186 62.5826 12.388 63.0466 10.764 63.9746C9.14004 64.9026 7.84471 66.256 6.87804 68.0346C5.91137 69.8133 5.42804 71.9013 5.42804 74.2986C5.42804 76.7346 5.91137 78.8613 6.87804 80.6786C7.84471 82.4573 9.14004 83.83 10.764 84.7966C12.388 85.7246 14.186 86.1886 16.158 86.1886C18.13 86.1886 19.928 85.7246 21.552 84.7966C23.2147 83.83 24.5294 82.4573 25.496 80.6786C26.4627 78.8613 26.946 76.754 26.946 74.3566ZM39.2294 74.2986C39.2294 71.0506 39.8867 68.2086 41.2014 65.7726C42.516 63.298 44.314 61.384 46.5954 60.0306C48.9154 58.6773 51.4867 58.0006 54.3094 58.0006C57.0934 58.0006 59.51 58.6 61.5594 59.7986C63.6087 60.9973 65.136 62.5053 66.1414 64.3226V58.5226H71.4774V90.3066H66.1414V84.3906C65.0974 86.2466 63.5314 87.7933 61.4434 89.0306C59.394 90.2293 56.9967 90.8286 54.2514 90.8286C51.4287 90.8286 48.8767 90.1326 46.5954 88.7406C44.314 87.3486 42.516 85.396 41.2014 82.8826C39.8867 80.3693 39.2294 77.508 39.2294 74.2986ZM66.1414 74.3566C66.1414 71.9593 65.658 69.8713 64.6914 68.0926C63.7247 66.314 62.41 64.9606 60.7474 64.0326C59.1234 63.066 57.3254 62.5826 55.3534 62.5826C53.3814 62.5826 51.5834 63.0466 49.9594 63.9746C48.3354 64.9026 47.04 66.256 46.0734 68.0346C45.1067 69.8133 44.6234 71.9013 44.6234 74.2986C44.6234 76.7346 45.1067 78.8613 46.0734 80.6786C47.04 82.4573 48.3354 83.83 49.9594 84.7966C51.5834 85.7246 53.3814 86.1886 55.3534 86.1886C57.3254 86.1886 59.1234 85.7246 60.7474 84.7966C62.41 83.83 63.7247 82.4573 64.6914 80.6786C65.658 78.8613 66.1414 76.754 66.1414 74.3566ZM86.8347 62.8726V81.6066C86.8347 83.1533 87.1633 84.2553 87.8207 84.9126C88.478 85.5313 89.6187 85.8406 91.2427 85.8406H95.1287V90.3066H90.3727C87.434 90.3066 85.23 89.63 83.7607 88.2766C82.2913 86.9233 81.5567 84.7 81.5567 81.6066V62.8726H77.4387V58.5226H81.5567V50.5186H86.8347V58.5226H95.1287V62.8726H86.8347ZM99.5516 74.2986C99.5516 71.0506 100.209 68.2086 101.524 65.7726C102.838 63.298 104.636 61.384 106.918 60.0306C109.238 58.6773 111.809 58.0006 114.632 58.0006C117.416 58.0006 119.832 58.6 121.882 59.7986C123.931 60.9973 125.458 62.5053 126.464 64.3226V58.5226H131.8V90.3066H126.464V84.3906C125.42 86.2466 123.854 87.7933 121.766 89.0306C119.716 90.2293 117.319 90.8286 114.574 90.8286C111.751 90.8286 109.199 90.1326 106.918 88.7406C104.636 87.3486 102.838 85.396 101.524 82.8826C100.209 80.3693 99.5516 77.508 99.5516 74.2986ZM126.464 74.3566C126.464 71.9593 125.98 69.8713 125.014 68.0926C124.047 66.314 122.732 64.9606 121.07 64.0326C119.446 63.066 117.648 62.5826 115.676 62.5826C113.704 62.5826 111.906 63.0466 110.282 63.9746C108.658 64.9026 107.362 66.256 106.396 68.0346C105.429 69.8133 104.946 71.9013 104.946 74.2986C104.946 76.7346 105.429 78.8613 106.396 80.6786C107.362 82.4573 108.658 83.83 110.282 84.7966C111.906 85.7246 113.704 86.1886 115.676 86.1886C117.648 86.1886 119.446 85.7246 121.07 84.7966C122.732 83.83 124.047 82.4573 125.014 80.6786C125.98 78.8613 126.464 76.754 126.464 74.3566Z" fill="#6CBEF5"/>
</svg>
