<svg width="51" height="51" viewBox="0 0 51 51" fill="none" xmlns="http://www.w3.org/2000/svg">
<path d="M11.3872 4.20312H40.5538C41.1064 4.20313 41.6363 4.42262 42.027 4.81332C42.4177 5.20402 42.6372 5.73392 42.6372 6.28646V43.7865C42.6372 44.339 42.4177 44.8689 42.027 45.2596C41.6363 45.6503 41.1064 45.8698 40.5538 45.8698H11.3872C10.8346 45.8698 10.3047 45.6503 9.91403 45.2596C9.52333 44.8689 9.30383 44.339 9.30383 43.7865V6.28646C9.30383 5.73392 9.52333 5.20402 9.91403 4.81332C10.3047 4.42262 10.8346 4.20313 11.3872 4.20312ZM19.7205 22.9531V16.7031L9.30383 25.0365L19.7205 33.3698V27.1198H32.2205V22.9531H19.7205Z" fill="#FF8074"/>
</svg>
