<svg width="51" height="51" viewBox="0 0 51 51" fill="none" xmlns="http://www.w3.org/2000/svg">
<path d="M36.3872 20.0609L47.2476 12.4567C47.4037 12.3472 47.587 12.2827 47.7773 12.2702C47.9676 12.2578 48.1576 12.2977 48.3268 12.3859C48.4959 12.474 48.6376 12.6068 48.7364 12.7699C48.8352 12.9331 48.8874 13.1202 48.8872 13.3109V38.4775C48.8874 38.6682 48.8352 38.8554 48.7364 39.0185C48.6376 39.1816 48.4959 39.3144 48.3268 39.4025C48.1576 39.4907 47.9676 39.5307 47.7773 39.5182C47.587 39.5057 47.4037 39.4412 47.2476 39.3317L36.3872 31.7275V40.4775C36.3872 41.0301 36.1677 41.56 35.777 41.9507C35.3863 42.3414 34.8564 42.5609 34.3038 42.5609H5.13717C4.58463 42.5609 4.05473 42.3414 3.66403 41.9507C3.27333 41.56 3.05383 41.0301 3.05383 40.4775V11.3109C3.05383 10.7583 3.27333 10.2284 3.66403 9.83773C4.05473 9.44703 4.58463 9.22754 5.13717 9.22754H34.3038C34.8564 9.22754 35.3863 9.44703 35.777 9.83773C36.1677 10.2284 36.3872 10.7583 36.3872 11.3109V20.0609ZM11.3872 17.5609V21.7275H15.5538V17.5609H11.3872Z" fill="#334D6E"/>
</svg>
