<svg width="51" height="51" viewBox="0 0 51 51" fill="none" xmlns="http://www.w3.org/2000/svg">
<path d="M47.4237 35.2715C47.4227 38.2053 46.4199 41.0508 44.5812 43.337C42.7425 45.6232 40.1782 47.2129 37.3128 47.843L35.9441 43.7369C37.1975 43.5304 38.3894 43.0485 39.4341 42.3259C40.4787 41.6032 41.3501 40.6578 41.9853 39.5578H36.6971C35.5591 39.5578 34.4678 39.1057 33.6632 38.3011C32.8585 37.4964 32.4065 36.4051 32.4065 35.2672V26.6859C32.4065 25.5479 32.8585 24.4566 33.6632 23.652C34.4678 22.8473 35.5591 22.3953 36.6971 22.3953H43C42.4765 18.2481 40.4577 14.4346 37.3223 11.6701C34.1869 8.90567 30.1505 7.38035 25.9705 7.38035C21.7905 7.38035 17.7541 8.90567 14.6187 11.6701C11.4833 14.4346 9.4645 18.2481 8.94098 22.3953H15.2439C16.3819 22.3953 17.4732 22.8473 18.2779 23.652C19.0825 24.4566 19.5346 25.5479 19.5346 26.6859V35.2672C19.5346 36.4051 19.0825 37.4964 18.2779 38.3011C17.4732 39.1057 16.3819 39.5578 15.2439 39.5578H8.80797C7.67002 39.5578 6.57868 39.1057 5.77403 38.3011C4.96938 37.4964 4.51733 36.4051 4.51733 35.2672V24.5406C4.51733 12.692 14.1219 3.0874 25.9705 3.0874C37.8191 3.0874 47.4237 12.692 47.4237 24.5406V35.2715ZM43.133 35.2672V26.6859H36.6971V35.2672H43.133ZM8.80797 26.6859V35.2672H15.2439V26.6859H8.80797Z" fill="#334D6E"/>
</svg>
