<svg width="19" height="17" viewBox="0 0 19 17" fill="none" xmlns="http://www.w3.org/2000/svg">
<path d="M3.41667 6.49999C3.63768 6.49999 3.84964 6.58779 4.00592 6.74407C4.16221 6.90035 4.25 7.11231 4.25 7.33332C5.55929 7.33139 6.83082 7.77188 7.85834 8.58332H9.66667C10.7775 8.58332 11.775 9.06666 12.4617 9.83332H15.0833C15.8711 9.83311 16.6427 10.0562 17.3088 10.4767C17.9749 10.8972 18.5081 11.4979 18.8467 12.2092C16.8758 14.81 13.685 16.5 10.0833 16.5C7.75834 16.5 5.79167 15.9975 4.2 15.1183C4.14171 15.2792 4.0352 15.4182 3.89502 15.5163C3.75483 15.6144 3.58779 15.6669 3.41667 15.6667H0.916669C0.695655 15.6667 0.483694 15.5789 0.327414 15.4226C0.171133 15.2663 0.0833359 15.0543 0.0833359 14.8333V7.33332C0.0833359 7.11231 0.171133 6.90035 0.327414 6.74407C0.483694 6.58779 0.695655 6.49999 0.916669 6.49999H3.41667ZM4.25084 8.99999L4.25 13.185L4.2875 13.2117C5.78334 14.2617 7.73167 14.8333 10.0833 14.8333C12.5867 14.8333 14.9158 13.87 16.6125 12.225L16.7233 12.1142L16.6233 12.0308C16.2298 11.7226 15.7528 11.5397 15.2542 11.5058L15.0833 11.5H13.3242C13.3842 11.7683 13.4167 12.0467 13.4167 12.3333V13.1667H5.91667V11.5L11.575 11.4992L11.5467 11.4342C11.387 11.1004 11.1413 10.8152 10.8349 10.6079C10.5286 10.4005 10.1725 10.2784 9.80334 10.2542L9.66667 10.25H7.225C6.83776 9.85393 6.37523 9.53931 5.8646 9.32464C5.35398 9.10997 4.80475 8.99959 4.25084 8.99999ZM2.58334 8.16666H1.75V14H2.58334V8.16666ZM14.25 3.16666C14.913 3.16666 15.5489 3.43005 16.0178 3.89889C16.4866 4.36773 16.75 5.00362 16.75 5.66666C16.75 6.3297 16.4866 6.96558 16.0178 7.43442C15.5489 7.90326 14.913 8.16666 14.25 8.16666C13.587 8.16666 12.9511 7.90326 12.4822 7.43442C12.0134 6.96558 11.75 6.3297 11.75 5.66666C11.75 5.00362 12.0134 4.36773 12.4822 3.89889C12.9511 3.43005 13.587 3.16666 14.25 3.16666ZM14.25 4.83332C14.029 4.83332 13.817 4.92112 13.6607 5.0774C13.5045 5.23368 13.4167 5.44564 13.4167 5.66666C13.4167 5.88767 13.5045 6.09963 13.6607 6.25591C13.817 6.41219 14.029 6.49999 14.25 6.49999C14.471 6.49999 14.683 6.41219 14.8393 6.25591C14.9955 6.09963 15.0833 5.88767 15.0833 5.66666C15.0833 5.44564 14.9955 5.23368 14.8393 5.0774C14.683 4.92112 14.471 4.83332 14.25 4.83332ZM8.41667 0.666656C9.07971 0.666656 9.7156 0.930049 10.1844 1.39889C10.6533 1.86773 10.9167 2.50362 10.9167 3.16666C10.9167 3.8297 10.6533 4.46558 10.1844 4.93442C9.7156 5.40326 9.07971 5.66666 8.41667 5.66666C7.75363 5.66666 7.11774 5.40326 6.6489 4.93442C6.18006 4.46558 5.91667 3.8297 5.91667 3.16666C5.91667 2.50362 6.18006 1.86773 6.6489 1.39889C7.11774 0.930049 7.75363 0.666656 8.41667 0.666656ZM8.41667 2.33332C8.19566 2.33332 7.98369 2.42112 7.82741 2.5774C7.67113 2.73368 7.58334 2.94564 7.58334 3.16666C7.58334 3.38767 7.67113 3.59963 7.82741 3.75591C7.98369 3.91219 8.19566 3.99999 8.41667 3.99999C8.63768 3.99999 8.84964 3.91219 9.00593 3.75591C9.16221 3.59963 9.25 3.38767 9.25 3.16666C9.25 2.94564 9.16221 2.73368 9.00593 2.5774C8.84964 2.42112 8.63768 2.33332 8.41667 2.33332Z" fill="#C2CFE0"/>
</svg>
